# xmcd CD database file
#
# Track frame offsets:
#	150
#	34530
#	50880
#	77340
#	92027
#	124779
#	143774
#	169930
#	187169
#	214427
#	229770
#	253762
#	279262
#	296857
#	325595
#
# Disc length: 4785 seconds
#
# Revision: 0
# Processed by: cddbd v1.5.2PL0 Copyright (c) Steve Scherf et al.
# Submitted via: CDex 1.70beta2
#
DISCID=df12af0f
DTITLE=Rudy S.J. Choi - Back To The Furture
DYEAR=1900
DGENRE=Jazz
TTITLE0=Rudy S.J. Choi - Bemsha Swing
TTITLE1=Rudy S.J. Choi - Four Brothers
TTITLE2=Rudy S.J. Choi - Social Call
TTITLE3=Rudy S.J. Choi - The Loney One
TTITLE4=Rudy S.J. Choi - Now's TheTtime
TTITLE5=Rudy S.J. Choi - I'm Beiginning To See The Light
TTITLE6=Rudy S.J. Choi - Furturerity
TTITLE7=Rudy S.J. Choi - La Golondrina
TTITLE8=Rudy S.J. Choi - Brieezing Alone
TTITLE9=Rudy S.J. Choi - I Love You For  Sentimental Reason
TTITLE10=Rudy S.J. Choi - Some Where My Love
TTITLE11=Rudy S.J. Choi - Speak Low
TTITLE12=Rudy S.J. Choi - Peanut Vendor
TTITLE13=Rudy S.J. Choi - Yeousoo and Thought Of Brother
TTITLE14=Data Track
EXTD=
EXTT0=
EXTT1=
EXTT2=
EXTT3=
EXTT4=
EXTT5=
EXTT6=
EXTT7=
EXTT8=
EXTT9=
EXTT10=
EXTT11=
EXTT12=
EXTT13=
EXTT14=
PLAYORDER=
